<?xml version="1.0" standalone="no"?>
<!DOCTYPE svg PUBLIC "-//W3C//DTD SVG 20010904//EN"
 "http://www.w3.org/TR/2001/REC-SVG-20010904/DTD/svg10.dtd">
<svg version="1.0" xmlns="http://www.w3.org/2000/svg"
 width="700.000000pt" height="700.000000pt" viewBox="0 0 700.000000 700.000000"
 preserveAspectRatio="xMidYMid meet">
<metadata>
Created by potrace 1.11, written by Peter Selinger 2001-2013
</metadata>
<g transform="translate(0.000000,700.000000) scale(0.100000,-0.100000)"
fill="#000000" stroke="none">
<path d="M3305 6994 c-22 -2 -92 -9 -155 -15 -582 -53 -1180 -275 -1660 -614
-312 -221 -630 -538 -847 -845 -853 -1206 -853 -2835 1 -4040 168 -236 446
-532 661 -704 542 -431 1143 -678 1850 -758 142 -16 548 -16 690 0 706 80
1309 327 1850 758 141 113 416 388 529 529 376 472 623 1017 720 1589 41 241
51 357 50 626 -2 345 -35 593 -120 903 -130 472 -341 884 -658 1282 -100 126
-390 416 -516 517 -533 424 -1132 675 -1805 754 -118 14 -512 26 -590 18z
m1070 -521 c3 -9 19 -7 61 7 31 11 58 20 60 20 2 0 -3 -15 -10 -32 -8 -18 -17
-47 -20 -65 l-7 -31 68 -7 c110 -11 115 -17 25 -31 -46 -6 -85 -14 -88 -16 -2
-3 5 -30 15 -61 l19 -55 -55 19 c-31 10 -59 19 -63 19 -4 0 -13 -44 -20 -97
-15 -109 -16 -109 -25 -3 -9 103 -10 104 -78 81 -31 -11 -57 -19 -57 -17 0 2
9 29 20 60 22 66 28 61 -90 76 -47 7 -86 13 -88 14 -1 2 30 6 69 10 129 12
131 14 104 91 -8 21 -13 40 -12 41 1 2 27 -6 57 -16 30 -10 58 -16 62 -12 4 4
10 34 13 67 10 91 17 97 27 20 4 -38 10 -75 13 -82z m1220 -537 c55 -13 118
-32 140 -40 l40 -15 -55 0 c-73 -1 -229 -27 -312 -52 -261 -77 -441 -267 -455
-479 -3 -44 -1 -105 6 -137 35 -178 31 -421 -10 -596 -26 -115 -87 -271 -138
-359 -22 -38 -38 -68 -35 -68 4 0 94 50 239 133 82 48 177 134 212 194 40 69
56 146 57 274 l1 116 16 -41 c42 -112 53 -172 53 -281 0 -93 -4 -120 -25 -176
-38 -99 -109 -198 -243 -338 -67 -69 -145 -158 -173 -196 -50 -67 -153 -242
-153 -260 0 -12 276 3 355 20 184 40 276 138 324 347 25 107 38 226 51 468 15
265 42 382 108 460 l21 25 -21 -60 c-34 -93 -30 -206 17 -470 38 -209 40 -231
40 -425 0 -197 -2 -208 -28 -285 -34 -102 -72 -167 -138 -239 -131 -143 -358
-246 -686 -310 -71 -14 -137 -27 -148 -29 -11 -3 0 -5 25 -6 25 -1 137 -10
250 -21 244 -23 376 -25 450 -6 30 8 56 13 58 11 7 -7 -93 -59 -157 -82 -66
-24 -304 -86 -456 -118 -145 -31 -238 -85 -291 -170 -19 -29 -19 -29 1 -21 11
4 56 17 100 28 99 26 214 20 355 -17 156 -41 162 -39 316 101 108 97 193 155
271 184 73 27 88 21 32 -12 -65 -38 -165 -149 -229 -253 -115 -188 -191 -235
-379 -235 -225 0 -308 -37 -397 -175 -45 -72 -76 -149 -130 -326 -25 -85 -64
-191 -85 -236 -117 -245 -312 -449 -582 -609 -67 -40 -140 -93 -182 -133 -220
-210 -499 -354 -824 -423 -93 -20 -134 -23 -331 -23 -194 1 -239 4 -325 23
-145 32 -275 76 -400 137 -480 232 -810 657 -927 1195 -19 92 -22 133 -22 325
0 189 3 234 22 323 57 260 147 466 296 672 34 47 88 135 120 195 114 214 224
370 351 497 92 93 166 150 290 223 116 68 149 95 182 152 64 109 18 242 -157
458 -104 129 -145 210 -144 285 1 76 33 133 144 260 106 121 166 209 215 312
38 78 37 57 -1 -60 -30 -92 -67 -164 -156 -309 -56 -90 -72 -126 -76 -164 -6
-66 14 -95 148 -213 116 -103 192 -186 236 -262 l27 -46 18 23 c37 50 52 127
55 288 2 85 11 192 19 239 38 203 125 341 255 407 l35 18 -34 -39 c-75 -85
-108 -212 -91 -349 12 -97 21 -128 77 -295 45 -131 46 -139 47 -257 l0 -121
91 45 c119 60 231 133 277 180 57 59 68 97 83 287 17 218 33 266 119 352 53
53 85 73 246 152 214 105 314 176 444 313 l88 92 -30 -60 c-46 -91 -143 -230
-213 -306 -34 -38 -121 -118 -193 -178 -72 -61 -141 -124 -153 -142 -28 -38
-29 -83 -7 -198 9 -46 21 -131 28 -189 l12 -104 80 79 c115 114 141 171 160
349 21 205 37 263 89 324 28 34 92 75 135 87 20 6 16 1 -15 -22 -109 -81 -122
-142 -89 -413 16 -127 16 -140 0 -211 -20 -89 -69 -197 -129 -283 -24 -34 -46
-66 -50 -72 -8 -14 203 37 298 71 269 97 410 268 469 565 42 208 120 362 251
495 126 128 271 208 445 246 123 27 346 21 485 -15z m-4715 -878 c0 -21 1 -21
34 -9 24 10 24 9 19 -25 l-6 -34 44 -1 c24 -1 35 -3 24 -6 -70 -14 -68 -12
-61 -43 5 -28 4 -29 -20 -20 -34 13 -32 15 -41 -27 l-7 -38 -6 35 c-6 36 -9
37 -48 25 -21 -6 -21 -5 -12 21 13 33 2 43 -50 45 -34 1 -34 1 9 10 24 5 46
10 48 12 2 2 -1 17 -7 32 -8 21 -8 26 2 23 56 -21 58 -21 58 14 0 25 3 29 10
18 5 -8 10 -23 10 -32z m4644 -3315 c4 -4 65 13 123 34 8 3 6 -14 -7 -51 -32
-91 -33 -90 99 -102 39 -4 69 -10 65 -13 -3 -3 -44 -11 -90 -17 -47 -7 -88
-15 -91 -18 -4 -3 1 -31 11 -62 10 -31 16 -58 13 -60 -2 -2 -30 5 -62 16 -32
11 -60 18 -63 16 -2 -3 -10 -46 -18 -97 -15 -100 -24 -124 -24 -63 0 40 -16
154 -23 160 -2 2 -30 -5 -62 -16 -32 -11 -60 -18 -63 -16 -2 3 4 28 13 56 9
28 15 57 12 64 -4 9 -42 18 -114 27 l-108 13 109 16 c60 8 111 20 113 26 2 7
-5 37 -16 68 -11 31 -18 56 -17 56 2 0 29 -9 61 -20 32 -11 64 -20 70 -20 8 0
15 24 19 63 16 147 19 150 32 43 7 -54 15 -100 18 -103z"/>
<path d="M2917 3721 l-278 -36 -660 -475 c-363 -261 -664 -479 -669 -485 -4
-5 24 -319 66 -725 40 -393 74 -725 74 -737 l0 -23 199 0 200 0 33 63 c45 85
154 193 244 240 170 88 364 90 541 5 86 -41 216 -167 258 -251 l30 -58 90 3
90 3 387 874 387 874 -127 226 -127 226 -200 157 c-160 126 -206 157 -230 156
-16 0 -155 -17 -308 -37z"/>
</g>
</svg>
